#!OML:ASF I:\Actors\actors\Patient Classification 1\Patient 1\Session 1\Subject1.ASF
:FULLY-SPECIFIED
:DEGREES
552
root 0.541783 17.5767 8.11272 5.34591 12.9944 -9.32446
lowerback 5.3543 -0.197411 5.84902
upperback -9.61911 0.44151 -0.258323
thorax -13.5151 -0.392081 -3.63844
lowerneck -10.0635 -8.31064 -5.6987
upperneck 11.2368 -11.9094 10.7681
head 6.05746 -5.32503 3.26487
rclavicle 1.98785e-015 -7.95139e-015
rhumerus -24.7494 44.5095 -102.136
rradius 119.448
rwrist -15.4215
rhand -15.568 306.832
rfingers 7.12502
rthumb 10.6169 277.12
lclavicle 1.98785e-015 -7.95139e-015
lhumerus -33.586 -50.984 108.083
lradius 110.178
lwrist -7.54987
lhand -51.2781 -56.0081
lfingers 7.12502
lthumb -23.8153 332.536
rfemur -5.31036 17.6847 27.7508
rtibia 9.63856
rfoot -16.0286 -25.6016
rtoes 9.02531
lfemur -3.97618 -37.9143 -3.9769
ltibia -1.23022
lfoot -3.98595 33.8212
ltoes -13.5494
553
root 0.553104 17.5904 8.11204 5.60146 13.0634 -9.34564
lowerback 5.09709 -0.284446 6.04269
upperback -9.80228 0.351616 -0.124823
thorax -13.5865 -0.451001 -3.58253
lowerneck -9.99644 -8.20549 -5.55296
upperneck 11.4359 -11.7725 10.5216
head 6.07177 -5.26621 3.18045
rclavicle 1.0138e-014 -1.03368e-014
rhumerus -23.7534 44.5825 -101.661
rradius 120.058
rwrist -14.4872
rhand -15.6197 306.586
rfingers 7.12502
rthumb 10.567 276.871
lclavicle 1.0138e-014 -1.03368e-014
lhumerus -32.5161 -50.8153 107.449
lradius 111.25
lwrist -8.28744
lhand -50.7827 -54.6713
lfingers 7.12502
lthumb -23.3402 333.934
rfemur -5.28571 17.9973 27.6679
rtibia 9.09433
rfoot -15.8709 -25.9206
rtoes 9.38945
lfemur -4.33768 -37.9996 -3.7554
ltibia -1.33836
lfoot -3.8747 34.0911
ltoes -13.1755
554
root 0.569235 17.5988 8.11519 5.7165 12.9776 -9.41222
lowerback 4.8675 -0.371119 6.29357
upperback -9.89847 0.268613 0.0337321
thorax -13.5723 -0.506771 -3.53218
lowerneck -9.83937 -8.05193 -5.28754
upperneck 11.4401 -11.5562 10.1888
head 5.99121 -5.17868 3.06393
rclavicle 3.77691e-014 -1.11319e-014
rhumerus -23.4501 44.779 -101.787
rradius 120.159
rwrist -14.1908
rhand -15.9442 306.659
rfingers 7.12502
rthumb 10.254 276.929
lclavicle 3.77691e-014 -1.11319e-014
lhumerus -32.6988 -50.1958 107.795
lradius 111.528
lwrist -9.24053
lhand -51.1843 -54.5298
lfingers 7.12502
lthumb -23.7253 334.026
rfemur -5.09881 18.3887 27.6847
rtibia 8.59323
rfoot -15.6072 -26.1959
rtoes 9.36272
lfemur -4.39138 -37.9226 -3.67095
ltibia -1.49644
lfoot -3.66944 34.276
ltoes -13.2005
555
root 0.588706 17.601 8.11941 5.69525 12.7012 -9.43849
lowerback 4.73907 -0.38963 6.4897
upperback -9.85465 0.268305 0.162709
thorax -13.4434 -0.513331 -3.49837
lowerneck -10.0039 -7.96783 -4.88416
upperneck 11.498 -11.4346 9.74366
head 5.97664 -5.12615 2.8681
rclavicle 1.55052e-014 2.38542e-015
rhumerus -23.8249 45.0153 -102.272
rradius 119.658
rwrist -14.283
rhand -15.3942 305.711
rfingers 7.12502
rthumb 10.7846 276.008
lclavicle 1.55052e-014 2.38542e-015
lhumerus -33.9266 -49.2677 109.053
lradius 111.408
lwrist -9.89941
lhand -51.2702 -55.1358
lfingers 7.12502
lthumb -23.8078 333.409
rfemur -4.78068 18.8701 27.7143
rtibia 8.16235
rfoot -15.5536 -26.4647
rtoes 9.45976
lfemur -4.15951 -37.6474 -3.80994
ltibia -1.61024
lfoot -3.65856 34.2699
ltoes -13.1214
556
root 0.611172 17.5959 8.1234 5.55476 12.2229 -9.54017
lowerback 4.62345 -0.317162 6.73688
upperback -9.61165 0.388417 0.301922
thorax -13.0722 -0.454644 -3.50177
lowerneck -10.7337 -8.01914 -4.50424
upperneck 11.6897 -11.4921 9.28176
head 6.11517 -5.14053 2.62943
rclavicle 1.78906e-014 -2.54444e-014
rhumerus -25.6453 43.8353 -103.973
rradius 118.854
rwrist -14.3541
rhand -15.1182 307.678
rfingers 7.12502
rthumb 11.0507 277.989
lclavicle 1.78906e-014 -2.54444e-014
lhumerus -35.7879 -48.2661 110.901
lradius 110.685
lwrist -9.46121
lhand -50.4117 -55.6254
lfingers 7.12502
lthumb -22.9842 333.024
rfemur -4.40225 19.3198 27.8715
rtibia 7.83127
rfoot -15.5661 -26.6092
rtoes 9.38877
lfemur -3.70791 -37.3076 -3.98906
ltibia -1.66238
lfoot -4.02868 34.2436
ltoes -12.5662
557
root 0.635759 17.5825 8.12683 5.38835 11.5799 -9.66992
lowerback 4.55167 -0.220325 7.02993
upperback -9.29366 0.54362 0.440129
thorax -12.6385 -0.379073 -3.53755
lowerneck -10.9132 -7.90296 -4.52707
upperneck 10.9298 -11.3113 9.69233
head 5.92158 -5.04064 2.7818
rclavicle 6.36111e-015 -1.11319e-014
rhumerus -27.2279 43.943 -105.169
rradius 117.627
rwrist -15.3356
rhand -14.8215 305.878
rfingers 7.12502
rthumb 11.3369 276.204
lclavicle 6.36111e-015 -1.11319e-014
lhumerus -38.0421 -46.9464 112.823
lradius 109.672
lwrist -8.55627
lhand -51.8038 -61.3533
lfingers 7.12502
lthumb -24.3194 327.124
rfemur -4.08278 19.5879 28.0438
rtibia 7.62915
rfoot -15.3115 -26.4503
rtoes 8.695
lfemur -3.2322 -36.8852 -4.18081
ltibia -1.56498
lfoot -4.56857 34.2064
ltoes -11.9729
558
root 0.661105 17.5617 8.12718 5.24781 10.8316 -9.69355
lowerback 4.43047 -0.175087 6.94335
upperback -8.86463 0.596522 0.783478
thorax -12.0538 -0.295836 -3.12152
lowerneck -11.3658 -7.7401 -4.35409
upperneck 10.2065 -11.0065 9.51405
head 5.72911 -4.90451 2.72321
rclavicle 1.45113e-014 -6.36111e-015
rhumerus -29.6595 43.6066 -106.702
rradius 116.283
rwrist -16.179
rhand -14.659 305.723
rfingers 7.12502
rthumb 11.4936 276.059
lclavicle 1.45113e-014 -6.36111e-015
lhumerus -40.0287 -45.2904 114.471
lradius 108.247
lwrist -7.46254
lhand -51.1545 -58.3867
lfingers 7.12502
lthumb -23.6968 330.173
rfemur -3.88972 19.7679 28.0615
rtibia 7.58624
rfoot -14.9698 -26.115
rtoes 7.86085
lfemur -2.8621 -36.0153 -4.45512
ltibia -1.3205
lfoot -4.94093 33.7992
ltoes -11.7918
559
root 0.684482 17.5366 8.12562 5.12368 9.99039 -9.54836
lowerback 3.88468 -0.145271 6.19122
upperback -8.07041 0.534908 1.43357
thorax -10.8034 -0.171552 -1.99287
lowerneck -11.9814 -7.4722 -4.32556
upperneck 9.09665 -10.4761 9.17624
head 5.42685 -4.6801 2.66045
rclavicle 2.88238e-015 -4.92986e-014
rhumerus -31.3158 43.3241 -107.228
rradius 115.047
rwrist -16.9413
rhand -13.1746 304.61
rfingers 7.12502
rthumb 12.9249 275.03
lclavicle 2.88238e-015 -4.92986e-014
lhumerus -40.6256 -43.8117 115.312
lradius 106.733
lwrist -5.81158
lhand -50.3574 -54.8157
lfingers 7.12502
lthumb -22.9321 333.84
rfemur -3.77375 19.964 27.8871
rtibia 7.69649
rfoot -14.732 -25.7207
rtoes 7.14139
lfemur -2.40914 -35.0518 -4.94465
ltibia -1.13595
lfoot -5.07683 33.3789
ltoes -11.8537
560
root 0.703978 17.5153 8.12327 5.10251 9.08498 -9.19783
lowerback 4.73689 0.0788876 6.66799
upperback -8.26634 0.913071 0.89325
thorax -11.5113 -0.0843735 -2.89866
lowerneck -12.2165 -7.46362 -3.83999
upperneck 8.9768 -10.5585 9.38334
head 5.42248 -4.68533 2.63421
rclavicle 6.36111e-015 -2.14687e-014
rhumerus -33.9137 41.2867 -109.339
rradius 114.072
rwrist -17.2083
rhand -12.1196 303.835
rfingers 7.12502
rthumb 13.9417 274.322
lclavicle 6.36111e-015 -2.14687e-014
lhumerus -43.8464 -43.5835 116.787
lradius 105.76
lwrist -3.46161
lhand -50.0133 -55.4528
lfingers 7.12502
lthumb -22.6018 333.244
rfemur -3.82264 20.1688 27.4376
rtibia 7.92336
rfoot -14.5056 -25.2647
rtoes 6.17362
lfemur -1.92548 -34.608 -5.69769
ltibia -1.03361
lfoot -5.19197 33.5705
ltoes -11.7848
561
root 0.722648 17.5069 8.11163 5.26151 8.05692 -8.80914
lowerback 4.8081 0.243876 6.28315
upperback -8.16776 1.10076 0.951487
thorax -11.4207 0.0467385 -2.64851
lowerneck -12.4599 -7.28086 -3.5414
upperneck 8.72206 -10.2933 9.09011
head 5.3336 -4.56558 2.51909
rclavicle 1.43125e-014 -3.33958e-014
rhumerus -35.0091 40.8722 -109.746
rradius 113.626
rwrist -17.5683
rhand -11.2792 303.493
rfingers 7.12502
rthumb 14.7515 274.038
lclavicle 1.43125e-014 -3.33958e-014
lhumerus -44.584 -43.9709 117.154
lradius 104.814
lwrist -2.59298
lhand -51.1192 -55.0986
lfingers 7.12502
lthumb -23.6629 333.465
rfemur -4.28435 20.4548 26.8013
rtibia 8.37829
rfoot -14.312 -24.7119
rtoes 5.12631
lfemur -1.67859 -34.5842 -6.38656
ltibia -0.88191
lfoot -5.64672 34.4057
ltoes -10.7548
562
root 0.741804 17.5108 8.09246 5.52664 7.04927 -8.42494
lowerback 4.09997 0.241609 5.17102
upperback -7.76878 0.974492 1.61447
thorax -10.5545 0.142335 -1.29102
lowerneck -12.3891 -6.83916 -3.71929
upperneck 8.18837 -9.55875 8.6406
head 5.09195 -4.26008 2.48864
rclavicle 2.62396e-014 -2.46493e-014
rhumerus -34.6226 42.334 -108.745
rradius 113.824
rwrist -18.1705
rhand -11.9672 304.07
rfingers 7.12502
rthumb 14.0886 274.567
lclavicle 2.62396e-014 -2.46493e-014
lhumerus -43.4635 -44.0879 116.681
lradius 104.762
lwrist -3.24412
lhand -50.9813 -55.5113
lfingers 7.12502
lthumb -23.5306 333.069
rfemur -5.01287 20.6783 26.0681
rtibia 8.96107
rfoot -14.1811 -24.0731
rtoes 4.42359
lfemur -1.66789 -34.6801 -6.94715
ltibia -0.688449
lfoot -6.26155 35.3967
ltoes -9.19654
563
root 0.763454 17.5214 8.08898 5.81781 6.47485 -8.1195
lowerback 4.19425 0.182007 5.16176
upperback -8.12403 0.910697 1.55649
thorax -11.0183 0.0937249 -1.33762
lowerneck -12 -6.54189 -3.6984
upperneck 8.55499 -9.20339 8.67291
head 5.11954 -4.08585 2.53604
rclavicle 5.66536e-015 -3.57812e-015
rhumerus -34.5837 43.2507 -108.936
rradius 114.374
rwrist -18.9581
rhand -15.7677 306.253
rfingers 7.12502
rthumb 10.4243 276.532
lclavicle 5.66536e-015 -3.57812e-015
lhumerus -43.6671 -45.1302 116.52
lradius 105.625
lwrist -4.04126
lhand -50.7052 -56.2713
lfingers 7.12502
lthumb -23.2658 332.343
rfemur -5.53907 20.5753 25.4738
rtibia 9.25952
rfoot -14.086 -23.4887
rtoes 4.12962
lfemur -1.71062 -34.683 -7.38917
ltibia -0.680434
lfoot -6.5843 35.9066
ltoes -8.27456
564
root 0.786871 17.5372 8.09091 6.16356 6.12569 -8.25427
lowerback 4.3376 0.0978674 5.9958
upperback -8.6766 0.893783 1.311
thorax -11.7421 -0.0270488 -2.06186
lowerneck -11.8268 -6.3047 -3.31011
upperneck 9.50975 -9.03217 8.66727
head 5.35921 -3.96898 2.4842
rclavicle 8.94531e-015 -1.70955e-014
rhumerus -33.0757 43.3418 -108.213
rradius 115.395
rwrist -17.56
rhand -15.4482 306.529
rfingers 7.12502
rthumb 10.7324 276.823
lclavicle 8.94531e-015 -1.70955e-014
lhumerus -43.0552 -46.678 115.493
lradius 106.775
lwrist -5.3836
lhand -50.8062 -56.2442
lfingers 7.12502
lthumb -23.3627 332.358
rfemur -6.04406 20.4195 25.3941
rtibia 9.42648
rfoot -14.0268 -22.9743
rtoes 3.92143
lfemur -1.87557 -34.4423 -7.17489
ltibia -0.894991
lfoot -6.8018 36.0445
ltoes -7.48353
565
root 0.808726 17.5552 8.07785 6.48192 5.65299 -8.56661
lowerback 4.23016 -0.0322038 6.45039
upperback -8.98215 0.790032 1.50291
thorax -12.0472 -0.121354 -2.08795
lowerneck -11.8689 -5.95076 -2.8693
upperneck 10.5127 -8.6452 8.18413
head 5.61295 -3.76868 2.29048
rclavicle 5.91384e-015 -5.1684e-014
rhumerus -30.2595 44.2576 -106.23
rradius 116.23
rwrist -16.4828
rhand -15.3891 306.51
rfingers 7.12502
rthumb 10.7895 276.808
lclavicle 5.91384e-015 -5.1684e-014
lhumerus -40.4146 -48.1932 113.386
lradius 107.634
lwrist -6.33235
lhand -51.4068 -56.1473
lfingers 7.12502
lthumb -23.9387 332.38
rfemur -6.63553 20.475 25.4874
rtibia 9.64232
rfoot -13.9075 -22.5357
rtoes 3.54743
lfemur -2.08914 -34.2665 -6.68884
ltibia -1.0937
lfoot -6.86026 36.3739
ltoes -6.95023
